#!OML:ASF E:\motion texture\Top Level 1\Subject 1\Session 1\male.ASF
:FULLY-SPECIFIED
:DEGREES
319
root -13.7982 18.2618 3.65398 337.251 -87.7318 -341.152
lowerback 8.19585 -5.5302 -2.05445
upperback -0.593302 -7.47814 2.57052
thorax -4.58154 -3.63784 4.68719
lowerneck -20.5287 -1.42713 -3.70601
upperneck 15.9469 -2.13763 6.0625
head 8.44668 -0.606915 2.379
rclavicle -7.51158e-014 2.38542e-014
rhumerus -61.022 -1.67617 -53.4578
rradius 45.909
rwrist 0.44076
rhand -8.38653 -6.50424
rfingers 7.12502
rthumb 17.5369 -35.7333
lclavicle -7.51158e-014 2.38542e-014
lhumerus -3.67846 -19.7821 81.4861
lradius 79.8308
lwrist 7.07919
lhand -10.4947 4.64407
lfingers 7.12502
lthumb 15.5072 34.0422
rfemur -82.9447 -2.61636 19.6773
rtibia 75.2517
rfoot 373.855 180.36
rtoes 20.451
lfemur 5.46399 -8.86743 -26.7008
ltibia 21.2572
lfoot 710.164 3.27735
ltoes -8.89636
320
root -13.9279 18.2694 3.64406 335.672 -87.7716 -339.486
lowerback 8.23532 -5.53836 -2.11153
upperback -0.596736 -7.49461 2.58059
thorax -4.59718 -3.644 4.73537
lowerneck -20.5562 -1.41398 -3.67941
upperneck 15.8897 -2.1242 6.06572
head 8.43116 -0.598383 2.37691
rclavicle -1.02809e-014 -1.43125e-014
rhumerus -60.8551 -1.75179 -53.5322
rradius 45.7465
rwrist 0.482038
rhand -8.4118 -6.51494
rfingers 7.12502
rthumb 17.5126 -35.7461
lclavicle -1.02809e-014 -1.43125e-014
lhumerus -3.93136 -19.6587 81.3828
lradius 79.7581
lwrist 7.1795
lhand -10.4851 4.67429
lfingers 7.12502
lthumb 15.5165 34.0717
rfemur -83.3574 -2.57736 19.6945
rtibia 76.6788
rfoot 374.053 180.577
rtoes 20.3741
lfemur 5.66455 -8.84692 -26.7098
ltibia 21.4783
lfoot 710.234 3.05529
ltoes -9.46091
321
root -14.0579 18.2751 3.6342 333.611 -87.7953 -337.29
lowerback 8.23262 -5.53944 -2.18421
upperback -0.617514 -7.50264 2.58396
thorax -4.60703 -3.64547 4.78056
lowerneck -20.5792 -1.40806 -3.65045
upperneck 15.8327 -2.11832 6.05412
head 8.41511 -0.594886 2.36838
rclavicle -8.34958e-014 1.90833e-014
rhumerus -60.6584 -1.80691 -53.7015
rradius 45.6101
rwrist 0.508256
rhand -8.44699 -6.53734
rfingers 7.12502
rthumb 17.4787 -35.7716
lclavicle -8.34958e-014 1.90833e-014
lhumerus -4.23967 -19.5463 81.3373
lradius 79.6493
lwrist 7.22389
lhand -10.4678 4.68864
lfingers 7.12502
lthumb 15.5331 34.0848
rfemur -83.652 -2.57898 19.6961
rtibia 78.1471
rfoot 374.302 180.811
rtoes 20.4622
lfemur 5.8295 -8.84926 -26.7384
ltibia 21.6681
lfoot 710.31 2.81355
ltoes -10.006
322
root -14.1883 18.279 3.62461 331.164 -87.8048 -334.668
lowerback 8.19036 -5.53241 -2.26807
upperback -0.645477 -7.50047 2.58224
thorax -4.60244 -3.64193 4.82136
lowerneck -20.6005 -1.40951 -3.62824
upperneck 15.7616 -2.12002 6.04386
head 8.3945 -0.595341 2.36025
rclavicle -8.82837e-014 4.6118e-014
rhumerus -60.4205 -1.85629 -53.954
rradius 45.4942
rwrist 0.533173
rhand -8.49523 -6.56514
rfingers 7.12502
rthumb 17.4323 -35.8035
lclavicle -8.82837e-014 4.6118e-014
lhumerus -4.56906 -19.446 81.3386
lradius 79.4929
lwrist 7.20953
lhand -10.4492 4.69687
lfingers 7.12502
lthumb 15.551 34.0916
rfemur -83.8168 -2.61426 19.6794
rtibia 79.6678
rfoot 374.598 180.961
rtoes 20.6631
lfemur 5.97324 -8.8742 -26.7862
ltibia 21.8204
lfoot 710.385 2.56243
ltoes -10.5533
323
root -14.3189 18.2808 3.61536 328.675 -87.8101 -331.975
lowerback 8.11987 -5.51772 -2.34704
upperback -0.681135 -7.4871 2.57927
thorax -4.59194 -3.63301 4.85431
lowerneck -20.6099 -1.41749 -3.60606
upperneck 15.6767 -2.12809 6.02362
head 8.36736 -0.600118 2.34772
rclavicle 1.20583e-014 1.35174e-014
rhumerus -60.1584 -1.89365 -54.2834
rradius 45.4148
rwrist 0.555015
rhand -8.55296 -6.59005
rfingers 7.12502
rthumb 17.3767 -35.8333
lclavicle 1.20583e-014 1.35174e-014
lhumerus -4.93023 -19.3574 81.3868
lradius 79.2967
lwrist 7.13409
lhand -10.4039 4.68858
lfingers 7.12502
lthumb 15.5947 34.0799
rfemur -83.8425 -2.6725 19.6556
rtibia 81.5414
rfoot 374.416 165.801
rtoes 20.9073
lfemur 6.10813 -8.91359 -26.8355
ltibia 21.9371
lfoot 710.447 2.30814
ltoes -11.0865
324
root -14.4501 18.2806 3.60642 326.298 -87.8177 -329.375
lowerback 8.02176 -5.49384 -2.41233
upperback -0.714964 -7.4597 2.57516
thorax -4.56728 -3.61797 4.87385
lowerneck -20.6069 -1.4321 -3.59374
upperneck 15.571 -2.14334 6.01205
head 8.33166 -0.60834 2.33858
rclavicle -5.39048e-015 -1.43125e-014
rhumerus -59.8667 -1.93634 -54.6798
rradius 45.366
rwrist 0.581049
rhand -8.61916 -6.60356
rfingers 7.12502
rthumb 17.313 -35.8524
lclavicle -5.39048e-015 -1.43125e-014
lhumerus -5.30456 -19.2885 81.4738
lradius 79.0632
lwrist 7.02205
lhand -10.3416 4.66253
lfingers 7.12502
lthumb 15.6547 34.0492
rfemur -83.7206 -2.74425 19.6267
rtibia 83.8175
rfoot 374.234 150.578
rtoes 21.1203
lfemur 6.2506 -8.96143 -26.8784
ltibia 22.0113
lfoot 710.497 2.05697
ltoes -11.6088
